<?xml version="1.0" encoding="UTF-8" standalone="no"?><!DOCTYPE svg PUBLIC "-//W3C//DTD SVG 1.1//EN" "http://www.w3.org/Graphics/SVG/1.1/DTD/svg11.dtd"><svg width="100%" height="100%" viewBox="0 0 60 60" version="1.1" xmlns="http://www.w3.org/2000/svg" xmlns:xlink="http://www.w3.org/1999/xlink" xml:space="preserve" xmlns:serif="http://www.serif.com/" style="fill-rule:evenodd;clip-rule:evenodd;stroke-linejoin:round;stroke-miterlimit:2;"><g><rect x="0" y="0" width="60" height="60" style="fill:#f3712b;fill-rule:nonzero;"/><path d="M40.33,43.2c-5.14,3.707 -12.411,2.575 -16.18,-2.52c-0.1,-0.15 -0.2,-0.3 -0.3,-0.48c-3.374,-5.08 -2.105,-12.015 2.85,-15.57c5.053,-3.638 12.176,-2.614 16,2.3c0,0.08 0.13,0.15 0.17,0.23c1.436,1.961 2.211,4.329 2.211,6.76c0,3.674 -1.77,7.132 -4.751,9.28Zm0.22,-29.4c0.295,1.438 -0.005,2.936 -0.83,4.15c-4,-6.42 -7.3,-7.65 -10,-7.75c0.926,1.509 0.826,3.444 -0.25,4.85c-4.73,-7.73 -11,-4.3 -11,-4.3c0,0 4.42,3.15 2.73,6.82c-6.6,-4.4 -11.23,0.18 -11.23,0.18c0,0 7,2.77 5.27,7.1c-1.2,2.77 -4.65,2.13 -4.87,1.92c0.143,4.692 2.765,8.972 6.88,11.23c-1.441,0.883 -3.174,1.164 -4.82,0.78c0.558,1.122 1.228,2.184 2,3.17c6.395,8.675 18.762,10.608 27.5,4.3c5.071,-3.644 8.084,-9.519 8.084,-15.763c0,-4.131 -1.319,-8.157 -3.764,-11.487c-1.524,-2.105 -3.464,-3.875 -5.7,-5.2Z" style="fill:#fff;fill-rule:nonzero;"/></g></svg>