<?xml version="1.0" encoding="UTF-8" standalone="no"?><!DOCTYPE svg PUBLIC "-//W3C//DTD SVG 1.1//EN" "http://www.w3.org/Graphics/SVG/1.1/DTD/svg11.dtd"><svg width="100%" height="100%" viewBox="0 0 359 409" version="1.1" xmlns="http://www.w3.org/2000/svg" xmlns:xlink="http://www.w3.org/1999/xlink" xml:space="preserve" xmlns:serif="http://www.serif.com/" style="fill-rule:evenodd;clip-rule:evenodd;stroke-linejoin:round;stroke-miterlimit:2;"><path d="M360.958,285.375l0,-190.25l-164.75,-95.125l0,73.042l64.542,37.5c2.542,1.708 2.542,5.083 0,5.958l-76.417,44.167c-2.078,1.284 -4.714,1.284 -6.792,0l-76.458,-44.333c-1.183,-0.516 -1.951,-1.689 -1.951,-2.979c0,-1.29 0.768,-2.464 1.951,-2.979l64.542,-37.5l0,-72.875l-165.625,95.125l0,190.25l62.833,-36.5l0,-74.75c0.313,-2.022 2.071,-3.53 4.118,-3.53c0.325,0 0.649,0.038 0.966,0.113l76.417,44.167c2.192,1.156 3.526,3.483 3.417,5.958l0,88.333c-0.313,2.022 -2.071,3.53 -4.118,3.53c-0.325,0 -0.649,-0.038 -0.966,-0.113l-64.542,-37.5l-62.833,36.5l164.75,95.833l164.75,-95.125l-62.833,-36.5l-64.542,37.5c-2.542,1.708 -5.083,0 -5.083,-3.417l0,-88.333c0.051,-2.436 1.34,-4.684 3.417,-5.958l76.417,-44.167c2.542,-1.708 5.083,0 5.083,3.417l0,74.833l63.708,35.708Z" style="fill:#4c4c4c;fill-rule:nonzero;"/><path d="M180.042,407.667l164.75,-95.125l-62.833,-36.5l-64.542,37.5c-2.542,1.708 -5.083,0 -5.083,-3.417l0,-88.333c0.051,-2.436 1.34,-4.684 3.417,-5.958l76.417,-44.167c2.542,-1.708 5.083,0 5.083,3.417l0,74.583l62.833,36.5l0,-191.042l-180.042,104.542l0,208Z" style="fill-rule:nonzero;"/><path d="M196.208,0l0,73.042l64.542,37.5c2.542,1.708 2.542,5.083 0,5.958l-76.417,44.167c-2.078,1.284 -4.714,1.284 -6.792,0l-76.458,-44.333c-1.183,-0.516 -1.951,-1.689 -1.951,-2.979c0,-1.29 0.768,-2.464 1.951,-2.979l64.542,-37.5l0,-72.875l-165.625,95.125l180.042,104.542l180.042,-104.458l-163.875,-95.208Z" style="fill:#808080;fill-rule:nonzero;"/><path d="M143.542,313.375l-64.542,-37.5l-62.833,36.5l164.75,95.125l0,-207.833l-180.917,-104.542l0,190.25l62.833,-36.5l0,-74.75c0.313,-2.022 2.071,-3.53 4.118,-3.53c0.325,0 0.649,0.038 0.966,0.113l76.417,44.167c2.192,1.156 3.526,3.483 3.417,5.958l0,88.333c0.875,3.375 -1.667,5.917 -4.208,4.208Z" style="fill:#4c4c4c;fill-rule:nonzero;"/></svg>