<?xml version="1.0" encoding="UTF-8" standalone="no"?><!DOCTYPE svg PUBLIC "-//W3C//DTD SVG 1.1//EN" "http://www.w3.org/Graphics/SVG/1.1/DTD/svg11.dtd"><svg width="100%" height="100%" viewBox="0 0 209 209" version="1.1" xmlns="http://www.w3.org/2000/svg" xmlns:xlink="http://www.w3.org/1999/xlink" xml:space="preserve" xmlns:serif="http://www.serif.com/" style="fill-rule:evenodd;clip-rule:evenodd;stroke-linejoin:round;stroke-miterlimit:2;"><path d="M45.833,16.667c-16.108,0 -29.167,13.058 -29.167,29.167l0,116.667c0,16.108 13.058,29.167 29.167,29.167l116.667,0c16.108,0 29.167,-13.058 29.167,-29.167l0,-116.667c0,-16.108 -13.058,-29.167 -29.167,-29.167l-116.667,0Zm8.691,37.5l33.073,0l23.486,33.374l28.499,-33.374l10.417,0l-34.212,40.055l42.188,59.945l-33.065,0l-27.254,-38.721l-33.073,38.721l-10.417,0l38.786,-45.402l-38.428,-54.598Zm15.951,8.333l58.781,83.333l12.769,0l-58.781,-83.333l-12.769,0Z" style="fill:#fff;fill-rule:nonzero;stroke:#000;stroke-width:4.17px;"/><path d="M57.98,123.2c-0.963,-2.283 -2.15,-5.279 -3.372,-8.803c-1.324,-2.059 -3.335,-5.624 -4.603,-9.945c0,0 -3.9,-11.994 -5.408,-19.273c-1.308,-6.316 -1.382,-11.876 -0.897,-15.131l3.919,-10.629l4.046,-4.918l6.298,-4.4l7.584,-2.387l6.949,-0.107l6.183,1.511l5.697,2.934c0.978,0.652 5.351,5.004 11.235,10.185c1.211,-0.836 2.446,-1.64 3.701,-2.415c7.123,-4.395 15.525,-6.581 19.981,-11.038c9.757,-9.757 25.599,-9.757 35.355,0c9.757,9.757 9.757,25.599 -0,35.355c-5.197,5.197 -12.825,9.617 -21.224,13.949c4.686,5.159 8.299,9.502 9.646,11.748c1.971,3.285 3.597,6.17 4.94,8.703c9.706,2.556 17.32,10.856 18.494,21.423c1.524,13.713 -8.373,26.084 -22.086,27.608c-1.347,0.15 -8.261,0.264 -17.454,0.478c-7.595,1.426 -23.781,3.083 -59.012,3.083c-13.537,0 -24.615,-10.775 -24.99,-24.306c-0.291,-10.481 5.921,-19.667 15.017,-23.625Zm87.058,36.901l-4.043,2.661l-0.685,0.49c1.41,-0.715 2.944,-1.588 4.728,-3.151Z" style="fill:#fff;"/><path d="M119.177,51.085c6.743,-10.816 20.756,-14.927 32.384,-9.113c12.341,6.171 17.351,21.2 11.18,33.541l-5.535,7.775c-9.757,9.757 -25.599,9.757 -35.355,0c-8.764,-8.764 -9.656,-22.44 -2.674,-32.203Zm-0.916,1.596c-0.437,0.789 -0.638,1.284 -0.638,1.284l0.396,-0.813c0.079,-0.158 0.16,-0.315 0.242,-0.471Z" style="fill:#fff;"/><path d="M45.833,16.667c-16.108,0 -29.167,13.058 -29.167,29.167l0,116.667c0,16.108 13.058,29.167 29.167,29.167l116.667,0c16.108,0 29.167,-13.058 29.167,-29.167l0,-116.667c0,-16.108 -13.058,-29.167 -29.167,-29.167l-116.667,0Zm8.691,37.5l33.073,0l23.486,33.374l28.499,-33.374l10.417,0l-34.212,40.055l42.188,59.945l-33.065,0l-27.254,-38.721l-33.073,38.721l-10.417,0l38.786,-45.402l-38.428,-54.598Zm15.951,8.333l58.781,83.333l12.769,0l-58.781,-83.333l-12.769,0Z" style="fill-rule:nonzero;"/></svg>